<?xml version="1.0" encoding="UTF-8"?> <svg xmlns="http://www.w3.org/2000/svg" xmlns:xlink="http://www.w3.org/1999/xlink" width="140px" height="39px" viewBox="0 0 138 39" version="1.1"> <g id="surface1"> <path style=" stroke:none;fill-rule:nonzero;fill:rgb(0%,0%,0%);fill-opacity:1;" d="M 40.472656 0.0078125 L 0.921875 0.0078125 C 0.675781 0.0078125 0.441406 0.101562 0.269531 0.265625 C 0.0976562 0.421875 0 0.644531 0 0.875 L 0 38.125 C 0 38.355469 0.0976562 38.574219 0.269531 38.738281 C 0.441406 38.898438 0.675781 38.992188 0.917969 38.992188 L 40.472656 38.992188 C 40.71875 38.992188 40.949219 38.898438 41.125 38.738281 C 41.292969 38.578125 41.390625 38.355469 41.394531 38.125 L 41.394531 0.875 C 41.394531 0.648438 41.296875 0.425781 41.125 0.265625 C 40.945312 0.0976562 40.714844 0.0078125 40.472656 0.0078125 Z M 27.59375 25.128906 C 27.59375 25.359375 27.5 25.582031 27.324219 25.742188 C 27.148438 25.90625 26.917969 25.996094 26.675781 25.996094 L 14.71875 25.996094 C 14.472656 25.996094 14.238281 25.90625 14.066406 25.742188 C 13.898438 25.585938 13.800781 25.363281 13.796875 25.128906 L 13.796875 13.871094 C 13.796875 13.640625 13.894531 13.417969 14.066406 13.257812 C 14.238281 13.09375 14.472656 13.003906 14.71875 13.003906 L 26.675781 13.003906 C 26.917969 13.003906 27.152344 13.09375 27.324219 13.257812 C 27.496094 13.414062 27.59375 13.636719 27.59375 13.871094 Z M 123.277344 13.003906 L 111.316406 13.003906 C 110.808594 13.003906 110.398438 13.394531 110.398438 13.871094 L 110.398438 25.132812 C 110.398438 25.609375 110.808594 26 111.316406 26 L 123.273438 26 C 123.785156 26 124.195312 25.609375 124.195312 25.132812 L 124.195312 13.871094 C 124.195312 13.390625 123.785156 13.003906 123.273438 13.003906 Z M 109.480469 0.0078125 L 97.523438 0.0078125 C 97.015625 0.0078125 96.601562 0.398438 96.601562 0.875 L 96.601562 12.136719 C 96.601562 12.617188 97.015625 13.003906 97.523438 13.003906 L 109.480469 13.003906 C 109.988281 13.003906 110.398438 12.617188 110.398438 12.136719 L 110.398438 0.875 C 110.398438 0.398438 109.988281 0.0117188 109.480469 0.0117188 Z M 137.082031 0.0078125 L 125.121094 0.0078125 C 124.613281 0.0078125 124.203125 0.398438 124.203125 0.875 L 124.203125 12.136719 C 124.203125 12.617188 124.613281 13.003906 125.121094 13.003906 L 137.078125 13.003906 C 137.589844 13.003906 138 12.617188 138 12.136719 L 138 0.875 C 138 0.398438 137.589844 0.0117188 137.078125 0.0117188 Z M 109.480469 25.996094 L 97.523438 25.996094 C 97.015625 25.996094 96.601562 26.386719 96.601562 26.863281 L 96.601562 38.125 C 96.601562 38.605469 97.015625 38.992188 97.523438 38.992188 L 109.480469 38.992188 C 109.988281 38.992188 110.398438 38.601562 110.398438 38.125 L 110.398438 26.863281 C 110.398438 26.386719 109.988281 25.996094 109.480469 25.996094 Z M 137.082031 25.996094 L 125.121094 25.996094 C 124.613281 25.996094 124.203125 26.386719 124.203125 26.863281 L 124.203125 38.125 C 124.203125 38.605469 124.613281 38.992188 125.121094 38.992188 L 137.078125 38.992188 C 137.589844 38.992188 138 38.601562 138 38.125 L 138 26.863281 C 138 26.386719 137.589844 25.996094 137.078125 25.996094 Z M 88.769531 0.0078125 L 76.8125 0.0078125 C 76.300781 0.0078125 75.890625 0.398438 75.890625 0.875 L 75.890625 12.136719 C 75.890625 12.617188 76.300781 13.003906 76.8125 13.003906 L 88.769531 13.003906 C 89.277344 13.003906 89.6875 12.617188 89.6875 12.136719 L 89.6875 0.875 C 89.6875 0.398438 89.277344 0.0117188 88.769531 0.0117188 Z M 88.769531 25.996094 L 76.8125 25.996094 C 76.300781 25.996094 75.890625 26.386719 75.890625 26.863281 L 75.890625 38.125 C 75.890625 38.605469 76.300781 38.992188 76.8125 38.992188 L 88.769531 38.992188 C 89.277344 38.992188 89.6875 38.601562 89.6875 38.125 L 89.6875 26.863281 C 89.6875 26.386719 89.277344 25.996094 88.769531 25.996094 Z M 75.886719 13.859375 C 75.886719 13.628906 75.789062 13.410156 75.617188 13.246094 C 75.441406 13.082031 75.207031 12.992188 74.964844 12.992188 L 62.089844 12.992188 L 62.089844 0.875 C 62.089844 0.648438 61.992188 0.425781 61.820312 0.265625 C 61.640625 0.0976562 61.410156 0.0078125 61.167969 0.0078125 L 49.210938 0.0078125 C 48.964844 0.0078125 48.734375 0.101562 48.558594 0.265625 C 48.390625 0.421875 48.292969 0.644531 48.289062 0.875 L 48.289062 38.105469 C 48.289062 38.335938 48.386719 38.554688 48.558594 38.71875 C 48.734375 38.878906 48.964844 38.972656 49.210938 38.972656 L 61.167969 38.972656 C 61.414062 38.972656 61.648438 38.878906 61.820312 38.71875 C 61.992188 38.554688 62.089844 38.335938 62.089844 38.105469 L 62.089844 25.988281 L 74.964844 25.988281 C 75.210938 25.988281 75.445312 25.894531 75.617188 25.734375 C 75.789062 25.574219 75.882812 25.355469 75.886719 25.121094 Z M 75.886719 13.859375 "/> </g> </svg>