<?xml version="1.0" encoding="UTF-8"?> <svg xmlns="http://www.w3.org/2000/svg" xmlns:xlink="http://www.w3.org/1999/xlink" width="499px" height="140px" viewBox="0 0 498 140" version="1.1"> <g id="surface1"> <path style=" stroke:none;fill-rule:nonzero;fill:rgb(0%,0%,0%);fill-opacity:1;" d="M 146.054688 0.0351562 L 3.320312 0.0351562 C 2.4375 0.0351562 1.589844 0.359375 0.96875 0.945312 C 0.355469 1.511719 0.00390625 2.308594 0 3.144531 L 0 136.855469 C 0 137.679688 0.347656 138.472656 0.972656 139.054688 C 1.59375 139.636719 2.4375 139.964844 3.320312 139.964844 L 146.054688 139.964844 C 146.933594 139.964844 147.777344 139.636719 148.402344 139.054688 C 149.015625 138.488281 149.367188 137.691406 149.375 136.855469 L 149.375 3.144531 C 149.375 2.320312 149.027344 1.53125 148.402344 0.945312 C 147.761719 0.355469 146.921875 0.03125 146.054688 0.0351562 Z M 99.582031 90.210938 C 99.582031 91.035156 99.234375 91.828125 98.609375 92.410156 C 97.96875 93 97.132812 93.324219 96.265625 93.324219 L 53.109375 93.324219 C 52.230469 93.324219 51.386719 92.992188 50.761719 92.410156 C 50.148438 91.84375 49.796875 91.046875 49.792969 90.210938 L 49.792969 49.789062 C 49.792969 48.964844 50.140625 48.171875 50.761719 47.589844 C 51.386719 47.003906 52.230469 46.679688 53.109375 46.679688 L 96.265625 46.679688 C 97.144531 46.679688 97.988281 47.003906 98.609375 47.589844 C 99.222656 48.15625 99.578125 48.953125 99.582031 49.789062 Z M 444.863281 46.683594 L 401.710938 46.683594 C 399.875 46.683594 398.386719 48.078125 398.386719 49.796875 L 398.386719 90.21875 C 398.386719 91.933594 399.875 93.328125 401.710938 93.328125 L 444.863281 93.328125 C 446.695312 93.328125 448.183594 91.933594 448.183594 90.21875 L 448.183594 49.796875 C 448.183594 48.074219 446.695312 46.683594 444.863281 46.683594 Z M 395.082031 0.0351562 L 351.929688 0.0351562 C 350.097656 0.0351562 348.609375 1.429688 348.609375 3.148438 L 348.609375 43.570312 C 348.609375 45.289062 350.097656 46.683594 351.929688 46.683594 L 395.078125 46.683594 C 396.914062 46.683594 398.402344 45.289062 398.402344 43.570312 L 398.402344 3.148438 C 398.402344 1.429688 396.914062 0.0390625 395.078125 0.0390625 Z M 494.679688 0.0351562 L 451.527344 0.0351562 C 449.695312 0.0351562 448.207031 1.429688 448.207031 3.148438 L 448.207031 43.570312 C 448.207031 45.289062 449.695312 46.683594 451.53125 46.683594 L 494.679688 46.683594 C 496.511719 46.683594 498 45.289062 498 43.570312 L 498 3.148438 C 498 1.429688 496.511719 0.0390625 494.679688 0.0390625 Z M 395.082031 93.324219 L 351.929688 93.324219 C 350.097656 93.324219 348.609375 94.71875 348.609375 96.4375 L 348.609375 136.863281 C 348.609375 138.578125 350.097656 139.96875 351.929688 139.96875 L 395.078125 139.96875 C 396.914062 139.96875 398.402344 138.578125 398.402344 136.863281 L 398.402344 96.4375 C 398.402344 94.71875 396.914062 93.324219 395.078125 93.324219 Z M 494.679688 93.324219 L 451.527344 93.324219 C 449.695312 93.324219 448.207031 94.71875 448.207031 96.4375 L 448.207031 136.863281 C 448.207031 138.578125 449.695312 139.96875 451.53125 139.96875 L 494.679688 139.96875 C 496.511719 139.96875 498 138.578125 498 136.863281 L 498 96.4375 C 498 94.71875 496.511719 93.324219 494.679688 93.324219 Z M 320.335938 0.0351562 L 277.1875 0.0351562 C 275.351562 0.0351562 273.867188 1.429688 273.867188 3.148438 L 273.867188 43.570312 C 273.867188 45.289062 275.351562 46.683594 277.1875 46.683594 L 320.335938 46.683594 C 322.171875 46.683594 323.65625 45.289062 323.65625 43.570312 L 323.65625 3.148438 C 323.65625 1.429688 322.171875 0.0390625 320.335938 0.0390625 Z M 320.335938 93.324219 L 277.1875 93.324219 C 275.351562 93.324219 273.867188 94.71875 273.867188 96.4375 L 273.867188 136.863281 C 273.867188 138.578125 275.351562 139.96875 277.1875 139.96875 L 320.335938 139.96875 C 322.171875 139.96875 323.65625 138.578125 323.65625 136.863281 L 323.65625 96.4375 C 323.65625 94.71875 322.171875 93.324219 320.335938 93.324219 Z M 273.851562 49.753906 C 273.851562 48.929688 273.5 48.140625 272.878906 47.554688 C 272.238281 46.964844 271.402344 46.640625 270.53125 46.644531 L 224.058594 46.644531 L 224.058594 3.144531 C 224.058594 2.320312 223.710938 1.53125 223.085938 0.945312 C 222.449219 0.355469 221.609375 0.03125 220.738281 0.0351562 L 177.589844 0.0351562 C 176.707031 0.0351562 175.859375 0.359375 175.238281 0.945312 C 174.625 1.511719 174.273438 2.308594 174.265625 3.144531 L 174.265625 136.785156 C 174.265625 137.609375 174.613281 138.402344 175.238281 138.984375 C 175.859375 139.566406 176.707031 139.898438 177.589844 139.898438 L 220.738281 139.898438 C 221.621094 139.898438 222.464844 139.566406 223.085938 138.984375 C 223.710938 138.402344 224.058594 137.609375 224.058594 136.785156 L 224.058594 93.289062 L 270.527344 93.289062 C 271.410156 93.289062 272.253906 92.957031 272.878906 92.375 C 273.492188 91.808594 273.84375 91.011719 273.851562 90.179688 Z M 273.851562 49.753906 "/> </g> </svg>