<svg height="702" viewBox="0 -.00141495 157.427 44.18641495" width="2500" xmlns="http://www.w3.org/2000/svg"><path d="m46.17 0h-45.12c-.28 0-.547.103-.744.288a.951.951 0 0 0 -.306.694v42.22c0 .26.11.51.307.694s.464.288.742.288h45.121c.279 0 .545-.104.743-.288a.952.952 0 0 0 .307-.694v-42.22c0-.26-.11-.51-.307-.694a1.088 1.088 0 0 0 -.743-.288zm-14.69 28.474c0 .26-.11.51-.308.694a1.087 1.087 0 0 1 -.741.288h-13.642c-.278 0-.545-.104-.742-.288a.951.951 0 0 1 -.307-.694v-12.764c0-.26.11-.51.307-.694.197-.185.464-.288.742-.288h13.642c.278 0 .545.103.741.288a.95.95 0 0 1 .308.694zm109.15-13.744h-13.642c-.58 0-1.05.44-1.05.982v12.764c0 .542.47.982 1.05.982h13.641c.58 0 1.05-.44 1.05-.982v-12.764c0-.543-.47-.982-1.05-.982zm-15.737-14.73h-13.641c-.58 0-1.05.44-1.05.983v12.764c0 .542.47.982 1.05.982h13.64c.58 0 1.05-.44 1.05-.982v-12.764c0-.543-.47-.982-1.05-.982zm31.485 0h-13.642c-.579 0-1.049.44-1.049.983v12.764c0 .542.47.982 1.05.982h13.64c.58 0 1.05-.44 1.05-.982v-12.764c0-.543-.47-.982-1.05-.982zm-31.485 29.457h-13.641c-.58 0-1.05.44-1.05.982v12.765c0 .542.47.981 1.05.981h13.64c.58 0 1.05-.44 1.05-.981v-12.765c0-.542-.47-.982-1.05-.982zm31.485 0h-13.642c-.579 0-1.049.44-1.049.982v12.765c0 .542.47.981 1.05.981h13.64c.58 0 1.05-.44 1.05-.981v-12.765c0-.542-.47-.982-1.05-.982zm-55.114-29.457h-13.64c-.58 0-1.05.44-1.05.983v12.764c0 .542.47.982 1.05.982h13.64c.58 0 1.05-.44 1.05-.982v-12.764c0-.543-.47-.982-1.05-.982zm0 29.457h-13.64c-.58 0-1.05.44-1.05.982v12.765c0 .542.47.981 1.05.981h13.64c.58 0 1.05-.44 1.05-.981v-12.765c0-.542-.47-.982-1.05-.982zm-14.694-13.758c0-.26-.112-.51-.308-.695a1.087 1.087 0 0 0 -.742-.287h-14.691v-13.735c0-.26-.11-.51-.307-.694a1.087 1.087 0 0 0 -.742-.288h-13.641c-.279 0-.546.103-.743.288a.951.951 0 0 0 -.307.694v42.198c0 .26.11.51.307.694s.464.288.743.288h13.64c.279 0 .546-.104.743-.288s.307-.434.307-.694v-13.735h14.69c.279 0 .546-.104.743-.288a.952.952 0 0 0 .307-.694z"/></svg>